PathFileType	4	(X/Y/Z)	c:/Users/goper/Files/vsCode/490R/osim_files/C10/C10_Slow_04.trc
DataRate	CameraRate	NumFrames	NumMarkers	Units                	OrigDataRate	OrigDataStartFrame	OrigNumFrames
250.00	250.00	8	36	mm	250.0	2128	3404
                Frame#	Time	LPSIS			LASIS			LTH1			LTH2			LTH3			LTH4			LLFE			LMFE			LSH1			LSH2			LSH3			LSH4			LLMAL			LMMAL			LCAL			LMTP5			LTOE			LMTP1			RPSIS			RASIS			RTH1			RTH2			RTH3			RTH4			RLFE			RMFE			RSH1			RSH2			RSH3			RSH4			RLMAL			RMMAL			RCAL			RMTP1			RTOE			RMTP5		
		X1	Y1	Z1	X2	Y2	Z2	X3	Y3	Z3	X4	Y4	Z4	X5	Y5	Z5	X6	Y6	Z6	X7	Y7	Z7	X8	Y8	Z8	X9	Y9	Z9	X10	Y10	Z10	X11	Y11	Z11	X12	Y12	Z12	X13	Y13	Z13	X14	Y14	Z14	X15	Y15	Z15	X16	Y16	Z16	X17	Y17	Z17	X18	Y18	Z18	X19	Y19	Z19	X20	Y20	Z20	X21	Y21	Z21	X22	Y22	Z22	X23	Y23	Z23	X24	Y24	Z24	X25	Y25	Z25	X26	Y26	Z26	X27	Y27	Z27	X28	Y28	Z28	X29	Y29	Z29	X30	Y30	Z30	X31	Y31	Z31	X32	Y32	Z32	X33	Y33	Z33	X34	Y34	Z34	X35	Y35	Z35	X36	Y36	Z36

2128	8.50800	-486.79660	993.19287	300.75385	-646.73999	990.39862	435.28693	-662.47394	757.46606	479.30234	-685.75269	716.13165	474.30322	-712.47510	781.96454	457.62256	-727.44934	737.64417	453.17462	-784.38586	497.82535	389.64725	0.00000	0.00000	0.00000	-745.87286	398.51355	403.60522	-752.51947	352.61478	404.47321	-803.64838	404.73898	385.89331	-801.99786	358.50598	388.26947	-792.52081	86.43877	349.86414	0.00000	0.00000	0.00000	-730.27747	39.96239	303.69867	-903.22101	33.13673	364.71457	-955.12781	58.32765	303.34891	-920.65955	33.48999	256.32272	-496.50192	995.79126	215.37184	-656.74634	960.67352	104.05840	-526.79431	721.68585	73.02818	-526.37592	677.56757	74.36671	-587.83209	715.01483	66.44643	-580.23334	670.89844	70.33451	-491.36533	460.18176	125.97790	0.00000	0.00000	0.00000	-375.56406	430.28522	122.97332	-351.68115	394.12875	120.44662	-424.36203	388.56927	122.27719	-392.53305	360.06107	118.89135	0.00000	0.00000	0.00000	0.00000	0.00000	0.00000	-123.28423	161.21315	205.61292	-261.98398	42.54307	256.71902	-291.83002	37.77446	222.76472	-248.67599	35.87187	156.73303
2129	8.51200	-492.50858	993.25653	301.06342	-651.15088	991.32922	435.95370	-667.32697	757.66046	480.20670	-690.57159	716.28967	475.29968	-717.42181	782.18091	458.65790	-732.41473	737.83215	454.16129	-786.41272	497.08163	390.49084	0.00000	0.00000	0.00000	-748.02612	398.27859	403.53174	-754.43317	352.40268	404.45309	-805.84698	404.38086	386.22174	-804.06982	358.16708	388.56754	-792.94653	86.39291	349.71069	0.00000	0.00000	0.00000	-730.37543	40.03691	303.64432	-903.35101	32.98406	364.71072	-955.43750	57.47847	303.06137	-920.72369	32.42032	256.24081	-501.50305	996.07117	215.27164	-661.98810	961.23401	105.09701	-533.39484	721.01379	73.58970	-533.59503	676.53479	74.78510	-594.58441	714.72797	67.11001	-587.39099	670.54034	71.07022	-500.37961	459.44736	125.94518	0.00000	0.00000	0.00000	-384.51794	430.76050	123.13325	-360.07141	395.01270	120.55478	-432.56094	388.51184	121.91163	-400.20688	360.27258	118.82178	0.00000	0.00000	0.00000	0.00000	0.00000	0.00000	-128.36412	167.13010	205.55565	-263.50671	44.03770	256.61597	-293.00195	38.02952	222.65257	-249.85995	37.31540	156.70534
2130	8.51600	-497.35571	993.61749	300.98111	-655.56506	992.19916	436.71686	-672.22723	757.89905	481.25629	-695.32855	716.46118	476.23160	-722.29199	782.35376	459.76199	-737.26569	738.00281	455.17377	-788.41357	496.19003	391.18295	0.00000	0.00000	0.00000	-749.86224	398.25085	403.45950	-756.19904	352.23315	404.32678	-807.86902	404.03586	386.44812	-806.02753	357.82523	388.79605	-793.27679	86.34671	349.52277	0.00000	0.00000	0.00000	-730.44226	40.08483	303.59119	-903.46600	32.84954	364.66467	-955.58722	56.69281	302.79709	-920.75623	31.44686	256.16348	-506.65292	996.02002	215.00356	-667.27484	961.97339	106.14773	-540.05615	720.13538	74.02075	-541.10901	676.67822	75.35869	-601.32147	714.47382	67.71223	-594.53851	670.28503	71.70829	-510.33792	457.80881	125.38870	0.00000	0.00000	0.00000	-393.80838	431.05722	123.17023	-368.82788	395.76404	120.51965	-441.19101	388.26572	121.69499	-408.29373	360.43253	118.64636	0.00000	0.00000	0.00000	0.00000	0.00000	0.00000	-133.87466	172.87025	205.30547	-265.17819	45.57880	256.45056	-294.42258	38.39283	222.46672	-251.21121	38.93474	156.58357
2131	8.52000	-502.16855	993.91803	300.93451	-659.94641	992.90143	437.55066	-676.89728	758.18811	482.42868	-699.88898	716.69525	477.17349	-727.12695	782.49103	460.90414	-741.83911	738.12512	456.11441	-790.43262	495.25528	391.78040	0.00000	0.00000	0.00000	-751.48016	398.37637	403.20081	-757.88519	352.06097	404.13641	-809.82495	403.74451	386.67477	-807.86334	357.47537	388.93127	-793.62402	86.31928	349.35504	0.00000	0.00000	0.00000	-730.50995	40.11415	303.54739	-903.60095	32.70523	364.63132	-955.73462	55.99665	302.53387	-920.78406	30.59611	256.06653	-511.07156	996.31964	215.35382	-672.49658	962.75415	107.13496	-546.74921	719.08496	74.30482	-548.22064	675.77386	75.85179	-607.99634	714.22284	68.23509	-601.72577	669.96143	72.33217	-519.76947	456.77029	125.49312	0.00000	0.00000	0.00000	-403.09177	431.41260	123.43404	-377.76132	396.47058	120.52957	-450.16492	387.70145	121.62718	-416.67432	360.56082	118.52287	0.00000	0.00000	0.00000	0.00000	0.00000	0.00000	-139.73254	178.71861	204.94348	-266.94327	47.42891	256.26660	-295.74652	38.74437	222.29663	-252.72740	40.76553	156.44530
2132	8.52400	-506.98276	994.10437	300.97876	-664.24908	993.47192	438.45218	-681.47870	758.48779	483.58911	-704.07874	716.88477	478.06741	-731.78540	782.55078	461.92856	-745.87677	738.15936	456.97314	-792.36584	494.34439	392.30417	0.00000	0.00000	0.00000	-752.96027	398.59314	402.75684	-759.39374	351.92465	403.85410	-811.59436	403.46176	386.83011	-809.58838	357.11923	388.97900	-793.89380	86.27541	349.20670	0.00000	0.00000	0.00000	-730.55511	40.13156	303.50613	-903.65967	32.61827	364.59894	-955.89801	55.41435	302.32861	-920.80139	29.86271	256.00836	-515.74341	996.50934	215.56052	-677.44159	963.55682	108.06616	-553.30182	718.31683	74.78712	-555.30566	674.86700	76.32093	-614.64154	714.03345	68.72243	-608.84595	669.71722	72.86016	-529.08508	455.70645	126.21241	0.00000	0.00000	0.00000	-412.84976	431.46576	123.60050	-387.18634	397.03610	120.22002	-459.24255	387.25812	121.52657	-425.36444	360.60587	118.42933	0.00000	0.00000	0.00000	0.00000	0.00000	0.00000	-145.87114	184.64334	204.56483	-261.80960	53.49903	257.45508	-297.50827	39.30596	222.10423	-254.47308	42.81805	156.27519
2133	8.52800	-511.83545	994.20270	301.08118	-668.57837	993.97748	439.36832	-685.87976	758.82190	484.71640	-708.16705	717.02350	478.75827	-736.31781	782.55341	463.02112	-750.37292	738.04810	457.65652	-794.28204	493.54620	392.64758	0.00000	0.00000	0.00000	-754.34589	398.86761	402.20432	-760.87756	351.83487	403.52701	-813.36884	403.26041	386.94113	-811.21130	356.76147	388.95374	-794.13385	86.28017	349.05563	0.00000	0.00000	0.00000	-730.58319	40.16756	303.44476	-903.58777	32.85382	364.81180	-956.01239	54.88665	302.12399	-920.82178	28.93871	256.07181	-520.36914	996.68311	215.75710	-682.29138	964.38483	108.99689	-559.91644	717.38556	75.13877	-562.38812	673.95422	76.64275	-621.25946	713.82458	69.18165	-616.44977	669.92017	70.97964	-538.74573	454.63800	126.41400	0.00000	0.00000	0.00000	-422.80106	431.57513	123.66261	-396.05148	397.52722	120.92953	-468.40417	386.97311	121.45522	-434.25784	360.59430	118.36204	0.00000	0.00000	0.00000	0.00000	0.00000	0.00000	-152.41310	190.67917	204.11157	-271.06653	51.35223	255.56429	-299.23380	40.04807	221.81804	-256.45209	45.17158	156.03374
2134	8.53200	-516.56879	994.27197	301.21106	-672.80383	994.42938	440.34940	-690.09802	759.15015	485.66257	-711.87640	717.13348	479.34207	-740.74078	782.45386	463.97028	-754.36206	737.87347	458.31656	-796.30389	492.90955	392.78033	0.00000	0.00000	0.00000	-755.68005	399.16629	401.61993	-762.26263	351.81104	403.22321	-814.98615	403.10413	387.02853	-812.74078	356.40677	388.87015	-794.35663	86.30044	348.87601	0.00000	0.00000	0.00000	-730.60382	40.21745	303.37891	-903.65039	32.81535	364.74646	-956.14203	54.44228	301.90637	-920.81372	28.37976	255.97720	-524.90906	996.81042	215.98351	-687.00928	965.30853	109.89478	-566.44653	716.44812	75.45866	-569.46027	673.10370	76.91063	-627.89575	713.61609	69.67620	-622.83893	669.49896	71.87106	-548.49396	453.53610	126.67830	0.00000	0.00000	0.00000	-432.97559	431.63074	123.66216	-405.57639	397.81250	121.24265	-478.05283	386.18011	121.59518	-443.18463	360.59894	117.88311	0.00000	0.00000	0.00000	0.00000	0.00000	0.00000	-159.29115	196.82512	203.55524	-273.31570	53.65799	255.16795	-301.24948	40.91995	221.54552	-258.68558	47.75165	155.79042
2135	8.53600	-521.22491	994.25421	301.39493	-677.11194	994.81964	441.29642	-694.09503	759.44983	486.51749	-715.38281	717.24066	479.88428	-745.10779	782.24597	464.85034	-757.66254	737.58807	458.92285	-798.51337	492.63995	392.75818	0.00000	0.00000	0.00000	-757.00616	399.45569	401.08038	-763.43939	352.01041	402.99075	-816.64221	402.99585	387.12787	-814.18549	356.05972	388.74283	-794.60333	86.29767	348.73099	0.00000	0.00000	0.00000	-730.61615	40.28568	303.31064	-903.71759	32.79026	364.69458	-956.29877	54.04766	301.70300	-920.79968	27.88330	255.88548	-529.30066	996.91583	216.30667	-691.70715	966.27533	110.69003	-572.96863	715.45978	75.61479	-576.44958	672.27551	77.12672	-634.51984	713.47040	70.13203	-629.65314	669.27399	72.42222	-558.33044	452.41974	126.94358	0.00000	0.00000	0.00000	-443.22879	431.60785	123.65923	-415.38358	398.15314	121.27541	-487.51453	385.84296	121.03128	-452.50644	360.50906	117.48767	0.00000	0.00000	0.00000	0.00000	0.00000	0.00000	-166.56668	203.05705	202.93011	-275.59515	56.27341	254.73364	-303.35965	42.01301	221.30988	-261.29657	50.61648	155.52310
